<svg width="398" height="90" viewBox="0 0 398 90" fill="none" xmlns="http://www.w3.org/2000/svg">
<path d="M22 12H164L129.5 77H22V12Z" fill="#384CFF"/>
<circle cx="45" cy="45" r="43" fill="white" stroke="#384CFF" stroke-width="4"/>
<path d="M23.6016 33.4609C24.0964 33.8255 24.5911 34.099 25.0859 34.2812C25.6068 34.4375 26.0755 34.5417 26.4922 34.5938C26.9609 34.6719 27.4297 34.6849 27.8984 34.6328C28.3411 34.5807 28.7969 34.4245 29.2656 34.1641C29.7344 33.9036 30.2812 33.6302 30.9062 33.3438C31.5312 33.0573 32.2604 32.8099 33.0938 32.6016C33.9531 32.3672 34.9818 32.25 36.1797 32.25C36.7005 32.25 37.2474 32.3542 37.8203 32.5625C38.4193 32.7708 38.9922 33.0443 39.5391 33.3828C40.0859 33.6953 40.5807 34.0469 41.0234 34.4375C41.4922 34.8281 41.8438 35.2188 42.0781 35.6094C42.3385 36 42.5208 36.638 42.625 37.5234C42.7292 38.3828 42.7682 39.3203 42.7422 40.3359C42.7161 41.3516 42.625 42.3542 42.4688 43.3438C42.3385 44.3333 42.1432 45.1406 41.8828 45.7656C41.5703 46.3125 40.9714 47.0156 40.0859 47.875C39.3307 48.6042 38.1979 49.5417 36.6875 50.6875C35.1771 51.8333 33.1458 53.2005 30.5938 54.7891C32.1042 54.763 33.3672 54.724 34.3828 54.6719C35.4245 54.5938 36.2708 54.5156 36.9219 54.4375C37.6771 54.3333 38.276 54.2292 38.7188 54.125C39.1094 53.9688 39.526 53.7474 39.9688 53.4609C40.3333 53.2005 40.724 52.862 41.1406 52.4453C41.5833 52.0286 42.013 51.4818 42.4297 50.8047C42.5078 52.2109 42.5859 53.3177 42.6641 54.125C42.7161 54.5938 42.7552 54.9974 42.7812 55.3359C42.8073 55.6484 42.8333 56.013 42.8594 56.4297C42.8854 56.7943 42.8984 57.2109 42.8984 57.6797C42.9245 58.1484 42.9635 58.6432 43.0156 59.1641C41.7135 58.8255 40.5286 58.5651 39.4609 58.3828C38.3932 58.1745 37.4818 58.0312 36.7266 57.9531C35.8411 57.849 35.0469 57.7969 34.3438 57.7969C33.6146 57.8229 32.8073 57.888 31.9219 57.9922C31.1406 58.0964 30.2031 58.2526 29.1094 58.4609C28.0417 58.6432 26.8307 58.9167 25.4766 59.2812C25.3724 58.9948 25.2812 58.7083 25.2031 58.4219C25.125 58.1094 25.0599 57.8099 25.0078 57.5234C24.9297 57.2109 24.8646 56.8984 24.8125 56.5859C24.7604 56.2734 24.7083 55.974 24.6562 55.6875C24.6042 55.4271 24.5651 55.1536 24.5391 54.8672C24.513 54.5807 24.487 54.3073 24.4609 54.0469C26.5443 52.7188 28.237 51.5208 29.5391 50.4531C30.8411 49.3594 31.8698 48.4349 32.625 47.6797C33.4844 46.7943 34.1354 45.987 34.5781 45.2578C35.0208 44.3724 35.3854 43.3958 35.6719 42.3281C35.9583 41.2604 36.0495 40.2708 35.9453 39.3594C35.8672 38.4479 35.5547 37.7057 35.0078 37.1328C34.4609 36.5339 33.5885 36.2734 32.3906 36.3516C31.6094 36.4036 30.8672 36.6771 30.1641 37.1719C29.487 37.6667 28.862 38.2656 28.2891 38.9688C27.7161 39.6719 27.2083 40.4271 26.7656 41.2344C26.3229 42.0156 25.9453 42.7578 25.6328 43.4609C25.3464 44.1641 25.112 44.75 24.9297 45.2188C24.7734 45.6875 24.6953 45.9349 24.6953 45.9609C24.6693 46.013 24.6302 45.8177 24.5781 45.375C24.5521 44.9323 24.513 44.3854 24.4609 43.7344C24.4349 43.0573 24.3958 42.3542 24.3438 41.625C24.2917 40.8958 24.2396 40.2839 24.1875 39.7891C24.1615 39.3984 24.1224 38.8906 24.0703 38.2656C23.9922 37.25 23.8359 35.6484 23.6016 33.4609ZM51.8438 32.7188C52.7031 32.7708 53.4062 32.8099 53.9531 32.8359C54.526 32.862 54.9818 32.875 55.3203 32.875C55.7109 32.901 56.0104 32.901 56.2188 32.875H57.2344C57.625 32.875 58.1719 32.888 58.875 32.9141C59.6042 32.9141 60.5547 32.9271 61.7266 32.9531C61.5964 33.1354 61.4922 33.3568 61.4141 33.6172C61.3359 33.8776 61.2708 34.138 61.2188 34.3984C61.1406 34.6849 61.0885 34.9974 61.0625 35.3359C61.0365 35.7526 60.9844 36.4036 60.9062 37.2891C60.8542 38.0443 60.776 39.099 60.6719 40.4531C60.5938 41.7812 60.4896 43.513 60.3594 45.6484C61.1146 45.6484 61.7656 45.5833 62.3125 45.4531C62.8594 45.2969 63.3151 45.1146 63.6797 44.9062C64.0964 44.6979 64.4349 44.4505 64.6953 44.1641C64.8255 44.0078 64.9688 43.8385 65.125 43.6562C65.2552 43.5 65.4245 43.3307 65.6328 43.1484C65.8411 42.9661 66.0625 42.7708 66.2969 42.5625C66.2448 43.2656 66.2057 43.8776 66.1797 44.3984C66.1536 44.8932 66.1276 45.3099 66.1016 45.6484C66.0755 46.0391 66.0495 46.3516 66.0234 46.5859C66.0234 46.8724 65.9974 47.25 65.9453 47.7188C65.8932 48.1354 65.8411 48.6953 65.7891 49.3984C65.737 50.0755 65.6849 50.9349 65.6328 51.9766C65.3724 51.4557 65.125 51.0521 64.8906 50.7656C64.6823 50.4531 64.5 50.2188 64.3438 50.0625C64.1354 49.8802 63.9531 49.75 63.7969 49.6719C63.6146 49.6198 63.3672 49.5677 63.0547 49.5156C62.7682 49.4635 62.4036 49.4375 61.9609 49.4375C61.5443 49.4115 60.9974 49.3854 60.3203 49.3594C60.3203 50.8958 60.3464 52.1328 60.3984 53.0703C60.4766 54.0078 60.5547 54.737 60.6328 55.2578C60.737 55.8828 60.8542 56.3255 60.9844 56.5859C61.1406 56.8203 61.362 57.0938 61.6484 57.4062C61.9089 57.6927 62.2604 58.0312 62.7031 58.4219C63.1458 58.8125 63.7188 59.2552 64.4219 59.75C63.8229 59.8802 63.25 59.9714 62.7031 60.0234C62.1823 60.0495 61.7005 60.0885 61.2578 60.1406C60.763 60.1927 60.2943 60.2188 59.8516 60.2188C59.3828 60.2188 58.8099 60.2448 58.1328 60.2969C57.5339 60.349 56.7917 60.401 55.9062 60.4531C55.0208 60.5052 53.9531 60.5703 52.7031 60.6484C53.1458 60.2057 53.4974 59.8021 53.7578 59.4375C54.0443 59.0469 54.2656 58.7083 54.4219 58.4219C54.6042 58.1094 54.7344 57.8359 54.8125 57.6016C54.8646 57.3151 54.9427 56.8333 55.0469 56.1562C55.125 55.5833 55.2161 54.7891 55.3203 53.7734C55.4245 52.7578 55.5417 51.4167 55.6719 49.75L45.0469 49.8672L45.2422 47.25C46.5182 45.4271 47.5339 43.9167 48.2891 42.7188C49.0703 41.4948 49.6693 40.5052 50.0859 39.75C50.5547 38.8906 50.8932 38.2135 51.1016 37.7188C51.2318 37.25 51.349 36.7552 51.4531 36.2344C51.5573 35.7917 51.6484 35.2708 51.7266 34.6719C51.8047 34.0469 51.8438 33.3958 51.8438 32.7188ZM56.1406 46.0391C56.1927 45.3359 56.2318 44.6979 56.2578 44.125C56.3099 43.526 56.349 43.0052 56.375 42.5625C56.401 42.0677 56.4141 41.599 56.4141 41.1562V39.7109C56.4141 39.2422 56.4141 38.6953 56.4141 38.0703C56.4401 37.4193 56.4661 36.6901 56.4922 35.8828L50.75 46.1172L56.1406 46.0391Z" fill="#384CFF"/>
<path d="M103.211 33.8125C105.867 33.8385 107.99 33.8516 109.578 33.8516C111.193 33.8516 112.443 33.8385 113.328 33.8125C114.37 33.7865 115.099 33.7604 115.516 33.7344L117.234 33.5781C117.885 33.526 118.758 33.4479 119.852 33.3438C120.971 33.2396 122.391 33.0833 124.109 32.875C122 36.8073 120.307 40.2188 119.031 43.1094C117.755 46 116.766 48.4219 116.062 50.375C115.229 52.6406 114.656 54.5807 114.344 56.1953C114.292 56.612 114.305 57.0417 114.383 57.4844C114.435 57.849 114.552 58.2526 114.734 58.6953C114.917 59.138 115.216 59.5417 115.633 59.9062C114.747 59.9323 113.966 59.9453 113.289 59.9453C112.638 59.9193 112.091 59.8932 111.648 59.8672C111.128 59.8411 110.659 59.8281 110.242 59.8281C109.852 59.8021 109.331 59.8151 108.68 59.8672C108.133 59.9193 107.404 59.9974 106.492 60.1016C105.607 60.2057 104.526 60.362 103.25 60.5703C104.083 60.1016 104.773 59.6719 105.32 59.2812C105.867 58.8646 106.31 58.513 106.648 58.2266C107.039 57.888 107.352 57.5755 107.586 57.2891C108.029 56.6641 108.432 55.9349 108.797 55.1016C109.188 54.2682 109.552 53.3698 109.891 52.4062C110.255 51.4427 110.633 50.4401 111.023 49.3984C111.414 48.3307 111.857 47.263 112.352 46.1953C112.716 45.3359 113.133 44.3984 113.602 43.3828C113.992 42.5234 114.435 41.5339 114.93 40.4141C115.451 39.2943 115.997 38.0964 116.57 36.8203C116.258 36.4297 115.724 36.1953 114.969 36.1172C114.24 36.0391 113.497 36.0391 112.742 36.1172C111.857 36.2214 110.893 36.3906 109.852 36.625C109.435 36.7812 108.953 37.0938 108.406 37.5625C107.938 37.9792 107.365 38.5911 106.688 39.3984C106.01 40.1797 105.255 41.2474 104.422 42.6016C104.344 40.9349 104.266 39.7109 104.188 38.9297L104.07 37.7578C104.018 37.4714 103.953 37.1328 103.875 36.7422C103.823 36.4036 103.732 35.987 103.602 35.4922C103.497 34.9974 103.367 34.4375 103.211 33.8125Z" fill="white"/>
<path d="M170.586 29.5625V58H164.238V29.5625H170.586ZM179.238 29.5625V34.5039H155.762V29.5625H179.238ZM190.234 58.3906C188.555 58.3906 187.051 58.1237 185.723 57.5898C184.395 57.056 183.268 56.3203 182.344 55.3828C181.432 54.4323 180.736 53.3385 180.254 52.1016C179.772 50.8646 179.531 49.543 179.531 48.1367V47.3945C179.531 45.819 179.753 44.3672 180.195 43.0391C180.638 41.7109 181.283 40.5586 182.129 39.582C182.988 38.5924 184.043 37.8307 185.293 37.2969C186.543 36.75 187.969 36.4766 189.57 36.4766C191.068 36.4766 192.402 36.724 193.574 37.2188C194.746 37.7005 195.736 38.3971 196.543 39.3086C197.35 40.207 197.962 41.2943 198.379 42.5703C198.809 43.8333 199.023 45.2526 199.023 46.8281V49.3281H181.992V45.4023H193.047V44.9336C193.047 44.1914 192.91 43.5404 192.637 42.9805C192.376 42.4206 191.986 41.9909 191.465 41.6914C190.957 41.3789 190.312 41.2227 189.531 41.2227C188.789 41.2227 188.171 41.3789 187.676 41.6914C187.181 42.0039 186.784 42.4466 186.484 43.0195C186.198 43.5794 185.99 44.237 185.859 44.9922C185.729 45.7344 185.664 46.5352 185.664 47.3945V48.1367C185.664 48.957 185.775 49.7057 185.996 50.3828C186.217 51.0599 186.543 51.6393 186.973 52.1211C187.402 52.6029 187.923 52.9805 188.535 53.2539C189.147 53.5273 189.844 53.6641 190.625 53.6641C191.589 53.6641 192.507 53.4818 193.379 53.1172C194.251 52.7396 195.007 52.1536 195.645 51.3594L198.496 54.6211C198.066 55.2461 197.461 55.8516 196.68 56.4375C195.911 57.0104 194.987 57.4792 193.906 57.8438C192.826 58.2083 191.602 58.3906 190.234 58.3906ZM210.82 53.6445C211.471 53.6445 212.038 53.5208 212.52 53.2734C213.001 53.026 213.372 52.681 213.633 52.2383C213.906 51.7826 214.043 51.2357 214.043 50.5977H219.785C219.785 52.1341 219.388 53.4883 218.594 54.6602C217.812 55.832 216.758 56.75 215.43 57.4141C214.102 58.0651 212.604 58.3906 210.938 58.3906C209.297 58.3906 207.865 58.1237 206.641 57.5898C205.417 57.043 204.395 56.2812 203.574 55.3047C202.754 54.3281 202.135 53.1953 201.719 51.9062C201.315 50.6042 201.113 49.1979 201.113 47.6875V47.1797C201.113 45.6823 201.315 44.2826 201.719 42.9805C202.135 41.6784 202.754 40.5391 203.574 39.5625C204.395 38.5859 205.41 37.8307 206.621 37.2969C207.845 36.75 209.277 36.4766 210.918 36.4766C212.65 36.4766 214.18 36.8086 215.508 37.4727C216.849 38.1367 217.897 39.0938 218.652 40.3438C219.408 41.5807 219.785 43.0716 219.785 44.8164H214.043C214.043 44.1393 213.919 43.5339 213.672 43C213.438 42.4531 213.073 42.0234 212.578 41.7109C212.096 41.3854 211.497 41.2227 210.781 41.2227C210.039 41.2227 209.427 41.3854 208.945 41.7109C208.477 42.0234 208.118 42.4596 207.871 43.0195C207.624 43.5794 207.454 44.2174 207.363 44.9336C207.272 45.6367 207.227 46.3854 207.227 47.1797V47.6875C207.227 48.4948 207.272 49.263 207.363 49.9922C207.454 50.7083 207.624 51.3398 207.871 51.8867C208.132 52.4336 208.496 52.8633 208.965 53.1758C209.434 53.4883 210.052 53.6445 210.82 53.6445ZM228.77 28V58H222.676V28H228.77ZM227.969 46.6914L226.445 46.7305C226.445 45.2461 226.628 43.8854 226.992 42.6484C227.37 41.3984 227.904 40.3112 228.594 39.3867C229.284 38.4622 230.111 37.7461 231.074 37.2383C232.051 36.7305 233.125 36.4766 234.297 36.4766C235.339 36.4766 236.289 36.6263 237.148 36.9258C238.008 37.2253 238.75 37.7005 239.375 38.3516C240 39.0026 240.482 39.8555 240.82 40.9102C241.159 41.9648 241.328 43.2474 241.328 44.7578V58H235.195V44.7188C235.195 43.8203 235.065 43.1172 234.805 42.6094C234.557 42.1016 234.193 41.7435 233.711 41.5352C233.242 41.3268 232.669 41.2227 231.992 41.2227C231.198 41.2227 230.54 41.3659 230.02 41.6523C229.499 41.9258 229.089 42.3099 228.789 42.8047C228.49 43.2995 228.275 43.8789 228.145 44.543C228.027 45.207 227.969 45.9232 227.969 46.6914ZM251.289 41.3789V58H245.176V36.8672H250.918L251.289 41.3789ZM250.488 46.6914L248.965 46.7305C248.965 45.1419 249.16 43.7161 249.551 42.4531C249.941 41.1901 250.495 40.1159 251.211 39.2305C251.94 38.332 252.806 37.6484 253.809 37.1797C254.824 36.7109 255.944 36.4766 257.168 36.4766C258.158 36.4766 259.062 36.6198 259.883 36.9062C260.703 37.1927 261.406 37.6549 261.992 38.293C262.591 38.918 263.047 39.7513 263.359 40.793C263.672 41.8216 263.828 43.0911 263.828 44.6016V58H257.695V44.582C257.695 43.6966 257.572 43.013 257.324 42.5312C257.077 42.0495 256.712 41.7109 256.23 41.5156C255.762 41.3203 255.189 41.2227 254.512 41.2227C253.796 41.2227 253.184 41.3659 252.676 41.6523C252.168 41.9258 251.751 42.3099 251.426 42.8047C251.1 43.2995 250.859 43.8789 250.703 44.543C250.56 45.207 250.488 45.9232 250.488 46.6914ZM266.934 47.6484V47.2383C266.934 45.6888 267.155 44.263 267.598 42.9609C268.04 41.6458 268.691 40.5065 269.551 39.543C270.41 38.5794 271.465 37.8307 272.715 37.2969C273.965 36.75 275.397 36.4766 277.012 36.4766C278.652 36.4766 280.098 36.75 281.348 37.2969C282.611 37.8307 283.672 38.5794 284.531 39.543C285.391 40.5065 286.042 41.6458 286.484 42.9609C286.927 44.263 287.148 45.6888 287.148 47.2383V47.6484C287.148 49.1849 286.927 50.6107 286.484 51.9258C286.042 53.2279 285.391 54.3672 284.531 55.3438C283.672 56.3073 282.617 57.056 281.367 57.5898C280.117 58.1237 278.678 58.3906 277.051 58.3906C275.436 58.3906 273.997 58.1237 272.734 57.5898C271.471 57.056 270.41 56.3073 269.551 55.3438C268.691 54.3672 268.04 53.2279 267.598 51.9258C267.155 50.6107 266.934 49.1849 266.934 47.6484ZM273.047 47.2383V47.6484C273.047 48.4818 273.112 49.263 273.242 49.9922C273.385 50.7214 273.613 51.3594 273.926 51.9062C274.238 52.4531 274.648 52.8828 275.156 53.1953C275.677 53.4948 276.309 53.6445 277.051 53.6445C277.793 53.6445 278.418 53.4948 278.926 53.1953C279.434 52.8828 279.844 52.4531 280.156 51.9062C280.469 51.3594 280.69 50.7214 280.82 49.9922C280.964 49.263 281.035 48.4818 281.035 47.6484V47.2383C281.035 46.418 280.964 45.6497 280.82 44.9336C280.69 44.2044 280.469 43.5599 280.156 43C279.844 42.4401 279.427 42.0039 278.906 41.6914C278.398 41.3789 277.767 41.2227 277.012 41.2227C276.283 41.2227 275.664 41.3789 275.156 41.6914C274.648 42.0039 274.238 42.4401 273.926 43C273.613 43.5599 273.385 44.2044 273.242 44.9336C273.112 45.6497 273.047 46.418 273.047 47.2383ZM296.777 28V58H290.664V28H296.777ZM300.293 47.6484V47.2383C300.293 45.6888 300.514 44.263 300.957 42.9609C301.4 41.6458 302.051 40.5065 302.91 39.543C303.77 38.5794 304.824 37.8307 306.074 37.2969C307.324 36.75 308.757 36.4766 310.371 36.4766C312.012 36.4766 313.457 36.75 314.707 37.2969C315.97 37.8307 317.031 38.5794 317.891 39.543C318.75 40.5065 319.401 41.6458 319.844 42.9609C320.286 44.263 320.508 45.6888 320.508 47.2383V47.6484C320.508 49.1849 320.286 50.6107 319.844 51.9258C319.401 53.2279 318.75 54.3672 317.891 55.3438C317.031 56.3073 315.977 57.056 314.727 57.5898C313.477 58.1237 312.038 58.3906 310.41 58.3906C308.796 58.3906 307.357 58.1237 306.094 57.5898C304.831 57.056 303.77 56.3073 302.91 55.3438C302.051 54.3672 301.4 53.2279 300.957 51.9258C300.514 50.6107 300.293 49.1849 300.293 47.6484ZM306.406 47.2383V47.6484C306.406 48.4818 306.471 49.263 306.602 49.9922C306.745 50.7214 306.973 51.3594 307.285 51.9062C307.598 52.4531 308.008 52.8828 308.516 53.1953C309.036 53.4948 309.668 53.6445 310.41 53.6445C311.152 53.6445 311.777 53.4948 312.285 53.1953C312.793 52.8828 313.203 52.4531 313.516 51.9062C313.828 51.3594 314.049 50.7214 314.18 49.9922C314.323 49.263 314.395 48.4818 314.395 47.6484V47.2383C314.395 46.418 314.323 45.6497 314.18 44.9336C314.049 44.2044 313.828 43.5599 313.516 43C313.203 42.4401 312.786 42.0039 312.266 41.6914C311.758 41.3789 311.126 41.2227 310.371 41.2227C309.642 41.2227 309.023 41.3789 308.516 41.6914C308.008 42.0039 307.598 42.4401 307.285 43C306.973 43.5599 306.745 44.2044 306.602 44.9336C306.471 45.6497 306.406 46.418 306.406 47.2383ZM337.031 36.8672H342.578V57.2383C342.578 59.1784 342.135 60.8255 341.25 62.1797C340.378 63.5339 339.16 64.5625 337.598 65.2656C336.035 65.9688 334.206 66.3203 332.109 66.3203C331.198 66.3203 330.247 66.1966 329.258 65.9492C328.268 65.7148 327.337 65.3568 326.465 64.875C325.592 64.4062 324.863 63.8073 324.277 63.0781L326.875 59.4844C327.474 60.1615 328.19 60.7083 329.023 61.125C329.857 61.5547 330.807 61.7695 331.875 61.7695C332.852 61.7695 333.678 61.5938 334.355 61.2422C335.033 60.8906 335.547 60.3763 335.898 59.6992C336.263 59.0221 336.445 58.2018 336.445 57.2383V41.8086L337.031 36.8672ZM322.91 47.6875V47.2773C322.91 45.6758 323.105 44.2174 323.496 42.9023C323.887 41.5742 324.453 40.4349 325.195 39.4844C325.951 38.5208 326.855 37.7786 327.91 37.2578C328.978 36.737 330.176 36.4766 331.504 36.4766C332.936 36.4766 334.121 36.75 335.059 37.2969C335.996 37.8307 336.758 38.5859 337.344 39.5625C337.93 40.526 338.392 41.6654 338.73 42.9805C339.069 44.2826 339.342 45.6953 339.551 47.2188V47.9219C339.342 49.3802 339.043 50.7409 338.652 52.0039C338.262 53.2669 337.754 54.3802 337.129 55.3438C336.504 56.2943 335.723 57.043 334.785 57.5898C333.861 58.1237 332.754 58.3906 331.465 58.3906C330.15 58.3906 328.965 58.1237 327.91 57.5898C326.855 57.056 325.951 56.3073 325.195 55.3438C324.453 54.3802 323.887 53.2474 323.496 51.9453C323.105 50.6432 322.91 49.224 322.91 47.6875ZM329.004 47.2773V47.6875C329.004 48.5208 329.082 49.2956 329.238 50.0117C329.408 50.7279 329.655 51.3594 329.98 51.9062C330.319 52.4531 330.736 52.8828 331.23 53.1953C331.738 53.4948 332.331 53.6445 333.008 53.6445C333.997 53.6445 334.798 53.4362 335.41 53.0195C336.035 52.5898 336.491 51.9974 336.777 51.2422C337.077 50.487 337.233 49.6081 337.246 48.6055V46.5547C337.246 45.7214 337.161 44.9727 336.992 44.3086C336.823 43.6445 336.569 43.0846 336.23 42.6289C335.905 42.1732 335.475 41.8281 334.941 41.5938C334.421 41.3464 333.789 41.2227 333.047 41.2227C332.383 41.2227 331.797 41.3789 331.289 41.6914C330.781 41.9909 330.358 42.4141 330.02 42.9609C329.681 43.5078 329.427 44.1523 329.258 44.8945C329.089 45.6237 329.004 46.418 329.004 47.2773ZM353.066 36.8672V58H346.953V36.8672H353.066ZM346.582 31.3984C346.582 30.513 346.895 29.7904 347.52 29.2305C348.145 28.6576 348.965 28.3711 349.98 28.3711C350.996 28.3711 351.816 28.6576 352.441 29.2305C353.079 29.7904 353.398 30.513 353.398 31.3984C353.398 32.2708 353.079 32.9935 352.441 33.5664C351.816 34.1263 350.996 34.4062 349.98 34.4062C348.965 34.4062 348.145 34.1263 347.52 33.5664C346.895 32.9935 346.582 32.2708 346.582 31.3984ZM367.422 58.3906C365.742 58.3906 364.238 58.1237 362.91 57.5898C361.582 57.056 360.456 56.3203 359.531 55.3828C358.62 54.4323 357.923 53.3385 357.441 52.1016C356.96 50.8646 356.719 49.543 356.719 48.1367V47.3945C356.719 45.819 356.94 44.3672 357.383 43.0391C357.826 41.7109 358.47 40.5586 359.316 39.582C360.176 38.5924 361.23 37.8307 362.48 37.2969C363.73 36.75 365.156 36.4766 366.758 36.4766C368.255 36.4766 369.59 36.724 370.762 37.2188C371.934 37.7005 372.923 38.3971 373.73 39.3086C374.538 40.207 375.15 41.2943 375.566 42.5703C375.996 43.8333 376.211 45.2526 376.211 46.8281V49.3281H359.18V45.4023H370.234V44.9336C370.234 44.1914 370.098 43.5404 369.824 42.9805C369.564 42.4206 369.173 41.9909 368.652 41.6914C368.145 41.3789 367.5 41.2227 366.719 41.2227C365.977 41.2227 365.358 41.3789 364.863 41.6914C364.368 42.0039 363.971 42.4466 363.672 43.0195C363.385 43.5794 363.177 44.237 363.047 44.9922C362.917 45.7344 362.852 46.5352 362.852 47.3945V48.1367C362.852 48.957 362.962 49.7057 363.184 50.3828C363.405 51.0599 363.73 51.6393 364.16 52.1211C364.59 52.6029 365.111 52.9805 365.723 53.2539C366.335 53.5273 367.031 53.6641 367.812 53.6641C368.776 53.6641 369.694 53.4818 370.566 53.1172C371.439 52.7396 372.194 52.1536 372.832 51.3594L375.684 54.6211C375.254 55.2461 374.648 55.8516 373.867 56.4375C373.099 57.0104 372.174 57.4792 371.094 57.8438C370.013 58.2083 368.789 58.3906 367.422 58.3906ZM390.43 52.1211C390.43 51.7305 390.306 51.3854 390.059 51.0859C389.824 50.7865 389.395 50.513 388.77 50.2656C388.158 50.0182 387.292 49.7708 386.172 49.5234C385.117 49.3021 384.134 49.0156 383.223 48.6641C382.311 48.2995 381.517 47.8633 380.84 47.3555C380.163 46.8346 379.635 46.2227 379.258 45.5195C378.88 44.8034 378.691 43.9896 378.691 43.0781C378.691 42.1927 378.88 41.3529 379.258 40.5586C379.648 39.7643 380.208 39.0612 380.938 38.4492C381.68 37.8372 382.578 37.3555 383.633 37.0039C384.701 36.6523 385.911 36.4766 387.266 36.4766C389.128 36.4766 390.736 36.7695 392.09 37.3555C393.444 37.9284 394.486 38.7357 395.215 39.7773C395.944 40.806 396.309 41.9844 396.309 43.3125H390.215C390.215 42.7656 390.111 42.2904 389.902 41.8867C389.694 41.4831 389.375 41.1706 388.945 40.9492C388.516 40.7148 387.949 40.5977 387.246 40.5977C386.699 40.5977 386.217 40.6953 385.801 40.8906C385.397 41.0729 385.078 41.3268 384.844 41.6523C384.622 41.9779 384.512 42.3555 384.512 42.7852C384.512 43.0846 384.577 43.3581 384.707 43.6055C384.85 43.8398 385.065 44.0612 385.352 44.2695C385.651 44.4648 386.035 44.6406 386.504 44.7969C386.986 44.9531 387.572 45.1029 388.262 45.2461C389.733 45.5195 391.074 45.9036 392.285 46.3984C393.509 46.8932 394.486 47.5768 395.215 48.4492C395.957 49.3216 396.328 50.474 396.328 51.9062C396.328 52.8438 396.113 53.7031 395.684 54.4844C395.267 55.2656 394.661 55.9492 393.867 56.5352C393.073 57.1211 392.122 57.5768 391.016 57.9023C389.909 58.2279 388.659 58.3906 387.266 58.3906C385.273 58.3906 383.587 58.0326 382.207 57.3164C380.827 56.6003 379.785 55.7018 379.082 54.6211C378.392 53.5273 378.047 52.4076 378.047 51.2617H383.77C383.796 51.9648 383.971 52.5378 384.297 52.9805C384.635 53.4232 385.072 53.7487 385.605 53.957C386.139 54.1523 386.738 54.25 387.402 54.25C388.066 54.25 388.62 54.1589 389.062 53.9766C389.505 53.7943 389.844 53.5469 390.078 53.2344C390.312 52.9089 390.43 52.5378 390.43 52.1211Z" fill="black"/>
</svg>
